# xmcd CD database file
# Copyright (C) 1996 Ti Kan
#
# Track frame offsets:
# 	150
# 	11630
# 	23080
# 	33330
# 	44713
# 	55478
# 	69215
# 	81033
# 	93635
# 	104610
#
# Disc length: 1540 seconds
#
# Revision: 1
# Processed by: cddbd v1.4b41PL1 Copyright (c) Steve Scherf et al.
# Submitted via: DiscPlay 3.4.1
#
DISCID=8006020a
DTITLE=Patsy Cline - Golden Hits Collection
DYEAR=1900
DGENRE=
TTITLE0=Walkin' After Midnight
TTITLE1=Just Out Of Reach (Of My Open Arms)
TTITLE2=Pick Me Up On Your Way Down
TTITLE3=The Heart You Break May Be Your Own
TTITLE4=I Cried All The Way To The Alter
TTITLE5=A Church, A Courtroom, And Then Goodbye
TTITLE6=Honky Tonk Merry Go Round
TTITLE7=Just A Closer Walk With Thee
TTITLE8=A Stranger In My Arms
TTITLE9=Stop The World (And Let Me Off)
EXTD=
EXTT0=
EXTT1=
EXTT2=
EXTT3=
EXTT4=
EXTT5=
EXTT6=
EXTT7=
EXTT8=
EXTT9=
PLAYORDER=
